<?xml version="1.0" standalone="no"?><svg xmlns="http://www.w3.org/2000/svg" viewBox="0 0 1440 320"><path fill="#273036" fill-opacity="1" d="M0,128L34.3,144C68.6,160,137,192,206,186.7C274.3,181,343,139,411,112C480,85,549,75,617,80C685.7,85,754,107,823,133.3C891.4,160,960,192,1029,213.3C1097.1,235,1166,245,1234,218.7C1302.9,192,1371,128,1406,96L1440,64L1440,320L1405.7,320C1371.4,320,1303,320,1234,320C1165.7,320,1097,320,1029,320C960,320,891,320,823,320C754.3,320,686,320,617,320C548.6,320,480,320,411,320C342.9,320,274,320,206,320C137.1,320,69,320,34,320L0,320Z"></path></svg>